<svg xmlns="http://www.w3.org/2000/svg" xmlns:xlink="http://www.w3.org/1999/xlink" width="41" height="41" viewBox="0 0 41 41">
  <defs>
    <clipPath id="clip-update">
      <rect width="41" height="41"/>
    </clipPath>
  </defs>
  <g id="update" clip-path="url(#clip-update)">
    <g id="Group_2155" data-name="Group 2155" transform="translate(-301 -112)">
      <path id="Path_165" data-name="Path 165" d="M20.5,0A20.5,20.5,0,1,1,0,20.5,20.5,20.5,0,0,1,20.5,0Z" transform="translate(301 112)" fill="#f9eca9"/>
      <path id="Icon_awesome-bullhorn" data-name="Icon awesome-bullhorn" d="M22.141,9.225a2.449,2.449,0,0,0-1.23-2.119V1.23A1.242,1.242,0,0,0,19.681,0a1.227,1.227,0,0,0-.768.27L15.644,2.885A9.33,9.33,0,0,1,9.84,4.92H2.46A2.46,2.46,0,0,0,0,7.38v3.69a2.46,2.46,0,0,0,2.46,2.46h1.3a9.341,9.341,0,0,0-.084,1.23,9.738,9.738,0,0,0,.983,4.264,1.206,1.206,0,0,0,1.092.656H8.6a1.222,1.222,0,0,0,1-1.943,4.9,4.9,0,0,1-1.005-2.977,4.652,4.652,0,0,1,.17-1.23H9.84a9.328,9.328,0,0,1,5.8,2.035l3.268,2.615a1.229,1.229,0,0,0,2-.96V11.345A2.45,2.45,0,0,0,22.141,9.225Zm-3.69,5.436-1.27-1.016A11.793,11.793,0,0,0,9.84,11.07V7.38a11.793,11.793,0,0,0,7.34-2.575l1.27-1.016Z" transform="translate(307.378 127.583) rotate(-22)" fill="#20936a"/>
    </g>
  </g>
</svg>
