<svg xmlns="http://www.w3.org/2000/svg" xmlns:xlink="http://www.w3.org/1999/xlink" width="87" height="87" viewBox="0 0 87 87">
  <defs>
    <clipPath id="clip-Add_profile">
      <rect width="87" height="87"/>
    </clipPath>
  </defs>
  <g id="Add_profile" data-name="Add profile" clip-path="url(#clip-Add_profile)">
    <g id="Group_2221" data-name="Group 2221" transform="translate(-17 -69)">
      <g id="Group_2219" data-name="Group 2219">
        <g id="Ellipse" transform="translate(17 69)" fill="none" stroke="#fff" stroke-width="2">
          <rect width="87" height="87" rx="43.5" stroke="none"/>
          <rect x="1" y="1" width="85" height="85" rx="42.5" fill="none"/>
        </g>
        <path id="Icon_awesome-user-circle" data-name="Icon awesome-user-circle" d="M40.667.563A40.667,40.667,0,1,0,81.335,41.23,40.66,40.66,0,0,0,40.667.563Zm0,15.742a14.43,14.43,0,1,1-14.43,14.43A14.431,14.431,0,0,1,40.667,16.3Zm0,56.41A31.423,31.423,0,0,1,16.644,61.531,18.283,18.283,0,0,1,32.8,51.725a4.012,4.012,0,0,1,1.164.18,21.711,21.711,0,0,0,6.707,1.131,21.629,21.629,0,0,0,6.707-1.131,4.012,4.012,0,0,1,1.164-.18,18.283,18.283,0,0,1,16.152,9.806A31.423,31.423,0,0,1,40.667,72.714Z" transform="translate(19.833 71.27)" fill="#b6dfd2" stroke="#20936a" stroke-width="2"/>
      </g>
      <g id="Ellipse_15" data-name="Ellipse 15" transform="translate(79 131)" fill="#20936a" stroke="#fff" stroke-width="2">
        <circle cx="12.5" cy="12.5" r="12.5" stroke="none"/>
        <circle cx="12.5" cy="12.5" r="11.5" fill="none"/>
      </g>
      <path id="Icon_ionic-ios-add" data-name="Icon ionic-ios-add" d="M21.165,14.66H16.28V9.775a.81.81,0,0,0-1.62,0V14.66H9.775a.81.81,0,0,0,0,1.62H14.66v4.885a.81.81,0,1,0,1.62,0V16.28h4.885a.81.81,0,1,0,0-1.62Z" transform="translate(76.03 128.03)" fill="#fff"/>
    </g>
  </g>
</svg>
