<svg xmlns="http://www.w3.org/2000/svg" xmlns:xlink="http://www.w3.org/1999/xlink" width="87" height="87" viewBox="0 0 87 87">
  <defs>
    <clipPath id="clip-profile">
      <rect width="87" height="87"/>
    </clipPath>
  </defs>
  <g id="profile" clip-path="url(#clip-profile)">
    <g id="Group_2221" data-name="Group 2221" transform="translate(-17 -69)">
      <g id="Group_2219" data-name="Group 2219">
        <path id="Icon_awesome-user-circle" data-name="Icon awesome-user-circle" d="M40.667.563A40.667,40.667,0,1,0,81.335,41.23,40.66,40.66,0,0,0,40.667.563Zm0,15.742a14.43,14.43,0,1,1-14.43,14.43A14.431,14.431,0,0,1,40.667,16.3Zm0,56.41A31.423,31.423,0,0,1,16.644,61.531,18.283,18.283,0,0,1,32.8,51.725a4.012,4.012,0,0,1,1.164.18,21.711,21.711,0,0,0,6.707,1.131,21.629,21.629,0,0,0,6.707-1.131,4.012,4.012,0,0,1,1.164-.18,18.283,18.283,0,0,1,16.152,9.806A31.423,31.423,0,0,1,40.667,72.714Z" transform="translate(19.833 71.27)" fill="#b6dfd2" stroke="#20936a" stroke-width="2"/>
      </g>
    </g>
  </g>
</svg>
