<svg xmlns="http://www.w3.org/2000/svg" xmlns:xlink="http://www.w3.org/1999/xlink" width="294" height="350" viewBox="0 0 294 350">
  <defs>
    <clipPath id="clip-path">
      <rect width="294" height="350"/>
    </clipPath>
  </defs>
  <g id="path" clip-path="url(#clip-path)">
    <g id="Group_2095" data-name="Group 2095" transform="translate(-41.5 -234.5)">
      <path id="Path_162" data-name="Path 162" d="M0,0H31.5" transform="translate(246.5 574.5)" fill="none" stroke="#4b4b4b" stroke-width="1" stroke-dasharray="7"/>
      <g id="Group_2092" data-name="Group 2092" transform="translate(-13.5)">
        <line id="Line_78" data-name="Line 78" x2="179.5" transform="translate(112 244.5)" fill="none" stroke="#4b4b4b" stroke-width="1" stroke-dasharray="7 7"/>
        <path id="Path_159" data-name="Path 159" d="M47.5,0C73.734,0,95,24.624,95,55s-23.75,55-47.5,55" transform="translate(244 244.5)" fill="none" stroke="#4b4b4b" stroke-width="1" stroke-dasharray="7 7"/>
        <line id="Line_79" data-name="Line 79" x2="180" transform="translate(111.5 354.5)" fill="none" stroke="#4b4b4b" stroke-width="1" stroke-dasharray="7 7"/>
        <path id="Path_160" data-name="Path 160" d="M95,0C68.766,0,47.5,24.624,47.5,55S71.25,110,95,110" transform="translate(16.5 354.5)" fill="none" stroke="#4b4b4b" stroke-width="1" stroke-dasharray="7"/>
        <path id="Path_161" data-name="Path 161" d="M47.5,0C73.734,0,95,24.624,95,55s-23.75,55-47.5,55" transform="translate(244 464.5)" fill="none" stroke="#4b4b4b" stroke-width="1" stroke-dasharray="7"/>
        <line id="Line_80" data-name="Line 80" x2="180" transform="translate(111.5 464.5)" fill="none" stroke="#4b4b4b" stroke-width="1" stroke-dasharray="7"/>
      </g>
    </g>
  </g>
</svg>
