<svg xmlns="http://www.w3.org/2000/svg" xmlns:xlink="http://www.w3.org/1999/xlink" width="37" height="37" viewBox="0 0 37 37">
  <defs>
    <filter id="Path_173" x="-3" y="0" width="42.146" height="42.146" filterUnits="userSpaceOnUse">
      <feOffset dy="3" input="SourceAlpha"/>
      <feGaussianBlur stdDeviation="3" result="blur"/>
      <feFlood flood-opacity="0.161"/>
      <feComposite operator="in" in2="blur"/>
      <feComposite in="SourceGraphic"/>
    </filter>
    <clipPath id="clip-link">
      <rect width="37" height="37"/>
    </clipPath>
  </defs>
  <g id="link" clip-path="url(#clip-link)">
    <g id="Group_2197" data-name="Group 2197" transform="translate(-132.427 -201.428)">
      <g transform="matrix(1, 0, 0, 1, 132.43, 201.43)" filter="url(#Path_173)">
        <path id="Path_173-2" data-name="Path 173" d="M12.073,0A12.073,12.073,0,1,1,0,12.073,12.073,12.073,0,0,1,12.073,0Z" transform="translate(6 6)" fill="#fff"/>
      </g>
      <g id="Icon_feather-link" data-name="Icon feather-link" transform="translate(141.474 210.466)">
        <path id="Path_580" data-name="Path 580" d="M15,9.638a3.015,3.015,0,0,0,4.547.326l1.809-1.809a3.015,3.015,0,1,0-4.264-4.264L16.055,4.922" transform="translate(-7.18 0)" fill="none" stroke="#5d5d5d" stroke-linecap="round" stroke-linejoin="round" stroke-width="2"/>
        <path id="Path_581" data-name="Path 581" d="M10.233,14.7a3.015,3.015,0,0,0-4.547-.326L3.876,16.185A3.015,3.015,0,1,0,8.14,20.449l1.031-1.032" transform="translate(0 -6.269)" fill="none" stroke="#5d5d5d" stroke-linecap="round" stroke-linejoin="round" stroke-width="2"/>
      </g>
    </g>
  </g>
</svg>
